# xmcd
#
# Track frame offsets:
#	182
#	13242
#	28260
#	42432
#	55042
#	70635
#	82245
#	94325
#	112452
#
# Disc length: 1717
#
# Revision: 2
# Processed by: cddbd v1.5.1PL0 Copyright (c) Steve Scherf et al.
# Submitted via: NotifyCDPlayer(CDDB) 1.51.3
# Normalized: r1:DSETVAR1
#
DISCID=8106b309
DTITLE=Various Artist - Country Spring Fever - Promotional Sampler
DYEAR=1900
DGENRE=
TTITLE0=Suzy Bogguss - Outbound Plane
TTITLE1=Ron Hynes - Man of a Thousand Songs
TTITLE2=Billy Dean - Billy the Kid
TTITLE3=Jim Witter - Distant Drum
TTITLE4=John Berry - Kiss Me in the Car
TTITLE5=Chris Ledoux (with Garth Brooks) - Watcha Gonna Do With a Cowboy
TTITLE6=New Grass Revival - Callin' Baton Rouge
TTITLE7=Pirates of the Mississippi - Feed Jake
TTITLE8=Stompin' Tom Connors - Shakin' the Blues
EXTD=
EXTT0=
EXTT1=
EXTT2=
EXTT3=
EXTT4=
EXTT5=
EXTT6=
EXTT7=
EXTT8=
PLAYORDER=
